<svg xmlns="http://www.w3.org/2000/svg" viewBox="0 0 987.23 767.38"><defs><style>.cls-1{fill:#fff;}</style></defs><g id="Layer_2" data-name="Layer 2"><g id="Layer_1-2" data-name="Layer 1"><path class="cls-1" d="M648.48,538.41c-28.32-41.68-55.32-81.33-82.25-121-51.56-76-104-151.42-154.29-228.31-35.28-54-82.33-80.87-147.4-78.33-48,1.88-96.16.56-144.25.11-5.77,0-13-2-17-5.68C68.51,73.5,34.34,41.22,0,9.13L4.52,3C6.73,2.27,9,.92,11.16.93,106.79,1,202.46-.42,298,2c83.66,2.12,148.58,40.72,195.22,110.72,48,72,97,143.26,145.66,214.81,2.63,3.87,5.56,7.52,9.63,13,4.72-6.77,8.62-12.23,12.39-17.78q104.88-154.4,209.49-309C877.2,3.71,884.25-.34,896.42,0c29.82.9,59.69.3,90.81.3V766.14H880.52V200.32l-4.08-1.71Z"/><path class="cls-1" d="M330.05,479.59,570.57,765.93c-6.78.55-11.14,1.2-15.5,1.21-37.39.09-74.79.68-112.14-.42-7.7-.23-17.53-4.92-22.47-10.82Q288.24,598.09,157.31,439.21c-4-4.85-6.45-12.14-7-18.5-1-13.19-.32-26.51-.32-42H168.7c34.72,0,69.44.06,104.16-.08,82.39-.33,127.94-37.17,146-120.3,13.94,20.36,26.77,39.08,39.59,57.81,9.64,14.1,18.72,28.63,29.09,42.17,6.24,8.15,6,14.06.2,22.43-35.57,51.32-84.77,81.55-144.88,95.41C339.35,477,335.92,478,330.05,479.59Z"/></g></g></svg>